<?xml version="1.0" standalone="no"?>
<!DOCTYPE svg PUBLIC "-//W3C//DTD SVG 20010904//EN"
 "http://www.w3.org/TR/2001/REC-SVG-20010904/DTD/svg10.dtd">
<svg version="1.0" xmlns="http://www.w3.org/2000/svg"
 width="128.000000pt" height="128.000000pt" viewBox="0 0 128.000000 128.000000"
 preserveAspectRatio="xMidYMid meet">

<g transform="translate(0.000000,128.000000) scale(0.100000,-0.100000)"
fill="#000000" stroke="none">
<path d="M25 1255 l-25 -24 0 -526 0 -526 25 -24 24 -25 259 0 258 0 39 -40
c43 -44 51 -47 75 -25 24 22 59 8 75 -31 14 -34 14 -34 80 -34 66 0 66 0 80
34 16 39 51 53 75 31 24 -22 32 -19 75 25 37 38 42 40 102 40 54 0 68 4 88 25
25 24 25 27 25 188 0 129 -3 166 -13 170 -32 12 -36 -9 -39 -168 l-3 -160 -59
-3 c-32 -2 -63 1 -67 5 -17 17 4 54 38 68 l34 14 -3 68 c-3 65 -4 68 -30 71
-35 4 -56 56 -33 82 22 25 20 31 -33 83 -52 52 -58 54 -82 32 -24 -22 -59 -8
-75 31 -14 34 -14 34 -80 34 -66 0 -66 0 -80 -34 -16 -39 -51 -53 -75 -31 -24
22 -31 19 -83 -33 -52 -53 -54 -58 -32 -82 23 -26 2 -78 -33 -82 -26 -3 -27
-6 -30 -71 l-3 -68 34 -14 c34 -14 55 -51 38 -68 -4 -4 -122 -6 -262 -5 l-254
3 -3 423 -2 422 590 0 590 0 0 -164 c0 -122 3 -165 13 -168 35 -14 37 -2 37
268 l0 265 -25 24 -24 25 -591 0 -591 0 -24 -25z m1203 -102 l3 -73 -591 0
-590 0 0 68 c0 38 3 72 7 75 3 4 268 6 587 5 l581 -3 3 -72z m-362 -558 c3
-13 16 -27 27 -31 12 -3 37 -13 55 -22 30 -14 35 -13 50 1 15 15 18 15 39 -5
21 -20 22 -23 7 -39 -15 -17 -15 -22 -1 -51 8 -18 18 -43 22 -55 3 -13 17 -26
31 -29 18 -5 24 -13 24 -35 0 -24 -4 -29 -24 -29 -17 0 -27 -7 -31 -22 -4 -13
-14 -38 -22 -56 -14 -29 -14 -34 1 -51 15 -16 14 -19 -7 -39 -21 -20 -24 -20
-39 -5 -15 14 -20 15 -50 1 -18 -9 -43 -19 -55 -22 -11 -4 -24 -18 -27 -31 -9
-35 -53 -35 -62 0 -3 13 -16 27 -27 31 -12 3 -37 13 -55 22 -30 14 -35 13 -50
-1 -15 -15 -18 -15 -39 5 -21 20 -22 23 -7 39 15 17 15 22 1 51 -8 18 -18 43
-22 56 -4 15 -14 22 -31 22 -20 0 -24 5 -24 29 0 22 6 30 24 35 14 3 28 16 31
29 4 12 14 37 23 55 14 30 13 35 -1 50 -15 15 -15 18 5 39 20 21 23 22 39 7
17 -15 22 -15 51 -1 18 8 43 18 55 21 11 4 24 18 27 31 5 18 13 25 31 25 18 0
26 -7 31 -25z"/>
<path d="M143 1164 c-8 -21 13 -42 28 -27 13 13 5 43 -11 43 -6 0 -13 -7 -17
-16z"/>
<path d="M253 1164 c-8 -21 13 -42 28 -27 13 13 5 43 -11 43 -6 0 -13 -7 -17
-16z"/>
<path d="M363 1164 c-8 -21 13 -42 28 -27 13 13 5 43 -11 43 -6 0 -13 -7 -17
-16z"/>
<path d="M563 1164 c-3 -8 -1 -20 4 -25 5 -5 122 -8 289 -7 271 3 279 4 279
23 0 19 -8 20 -283 23 -250 2 -283 0 -289 -14z"/>
<path d="M775 486 c-43 -18 -93 -79 -101 -122 -10 -52 10 -107 55 -147 66 -60
159 -58 220 5 60 62 63 152 7 216 -51 58 -117 76 -181 48z m140 -76 c69 -69
19 -185 -80 -185 -37 0 -50 6 -77 33 -76 76 -15 201 92 187 20 -3 46 -16 65
-35z"/>
<path d="M264 963 c-13 -41 -22 -48 -61 -46 -38 3 -39 1 -72 -59 l-34 -61 21
-18 c27 -22 28 -50 2 -67 -26 -16 -26 -21 13 -86 31 -53 34 -55 71 -53 38 2
47 -5 60 -45 4 -15 17 -18 75 -18 69 0 71 1 77 28 9 35 22 43 59 36 28 -5 33
-1 62 49 39 64 40 73 13 89 -11 7 -20 22 -20 33 0 11 9 26 20 33 26 16 26 20
-12 86 -31 54 -33 56 -72 53 -37 -2 -40 0 -48 31 l-9 32 -70 0 c-58 0 -71 -3
-75 -17z m106 -52 c0 -25 66 -64 95 -57 29 7 52 -36 29 -54 -8 -7 -14 -30 -14
-55 0 -25 6 -48 14 -55 24 -19 -1 -63 -30 -56 -30 8 -94 -30 -94 -55 0 -27
-56 -27 -65 0 -8 26 -72 63 -95 56 -12 -4 -24 2 -34 17 -14 19 -14 24 -1 38
19 21 19 89 0 110 -13 14 -13 19 1 38 10 15 22 21 34 17 23 -7 87 30 95 56 9
27 65 27 65 0z"/>
<path d="M279 801 c-38 -38 -38 -74 0 -112 40 -40 93 -36 128 10 27 34 8 101
-34 120 -39 18 -63 13 -94 -18z m85 -43 c8 -14 7 -21 -6 -34 -30 -30 -75 9
-48 42 16 18 39 15 54 -8z"/>
<path d="M700 880 c0 -13 9 -22 25 -26 38 -10 75 3 75 26 0 17 -7 20 -50 20
-43 0 -50 -3 -50 -20z"/>
<path d="M880 881 c0 -27 18 -31 130 -31 112 0 130 4 130 31 0 18 -9 19 -130
19 -121 0 -130 -1 -130 -19z"/>
<path d="M700 761 c0 -27 18 -31 149 -31 82 0 123 4 136 13 38 29 7 37 -141
37 -135 0 -144 -1 -144 -19z"/>
<path d="M1057 773 c-12 -11 -8 -22 14 -33 29 -16 69 -4 69 20 0 16 -7 20 -38
20 -21 0 -42 -3 -45 -7z"/>
<path d="M1234 615 c-4 -9 -2 -21 4 -27 15 -15 44 -1 40 19 -4 23 -36 29 -44
8z"/>
<path d="M140 390 c0 -13 7 -20 20 -20 13 0 20 7 20 20 0 13 -7 20 -20 20 -13
0 -20 -7 -20 -20z"/>
<path d="M250 391 c0 -24 19 -31 78 -31 66 0 92 9 92 31 0 17 -8 19 -85 19
-77 0 -85 -2 -85 -19z"/>
<path d="M140 271 c0 -25 19 -31 95 -31 76 0 95 6 95 31 0 17 -8 19 -95 19
-87 0 -95 -2 -95 -19z"/>
</g>
</svg>
