<?xml version="1.0" standalone="no"?>
<!DOCTYPE svg PUBLIC "-//W3C//DTD SVG 20010904//EN"
 "http://www.w3.org/TR/2001/REC-SVG-20010904/DTD/svg10.dtd">
<svg version="1.0" xmlns="http://www.w3.org/2000/svg"
 width="128.000000pt" height="128.000000pt" viewBox="0 0 128.000000 128.000000"
 preserveAspectRatio="xMidYMid meet">

<g transform="translate(0.000000,128.000000) scale(0.100000,-0.100000)"
fill="#161853" stroke="none">
<path d="M60 1220 c-19 -19 -20 -33 -20 -520 0 -487 1 -501 20 -520 18 -18 33
-20 178 -20 l158 0 39 -40 c21 -22 44 -40 50 -40 6 0 24 14 41 31 l29 31 5
-49 5 -48 75 0 75 0 5 48 5 49 29 -31 c17 -17 35 -31 41 -31 6 0 29 18 50 40
l39 40 158 0 c145 0 160 2 178 20 19 19 20 33 20 520 0 487 -1 501 -20 520
-20 20 -33 20 -580 20 -547 0 -560 0 -580 -20z m1138 -102 l3 -78 -561 0 -560
0 0 73 c0 41 3 77 7 80 3 4 254 6 557 5 l551 -3 3 -77z m0 -515 l-3 -398 -149
-3 -149 -3 -29 28 -30 28 49 5 48 5 0 75 0 75 -48 5 -49 5 31 29 c17 17 31 34
31 40 0 14 -91 106 -105 106 -6 0 -24 -14 -41 -31 l-29 -31 -5 49 -5 48 -75 0
-75 0 -5 -48 -5 -49 -29 31 c-17 17 -34 31 -40 31 -14 0 -106 -91 -106 -105 0
-6 14 -24 31 -41 l31 -29 -49 -5 -48 -5 0 -75 0 -75 48 -5 49 -5 -30 -28 -29
-28 -149 3 -149 3 -3 398 -2 397 560 0 560 0 -2 -397z m-516 -45 c3 -36 7 -44
31 -52 24 -9 31 -6 54 17 l27 27 28 -27 28 -27 -27 -28 c-23 -24 -25 -32 -17
-56 8 -23 16 -27 52 -30 42 -3 42 -3 42 -42 0 -39 0 -39 -42 -42 -36 -3 -44
-7 -52 -31 -9 -24 -6 -31 17 -54 l27 -27 -27 -28 -27 -28 -28 27 c-24 23 -32
25 -56 17 -23 -8 -27 -16 -30 -52 -3 -42 -3 -42 -42 -42 -39 0 -39 0 -42 42
-3 36 -7 44 -30 52 -24 8 -32 6 -56 -17 l-28 -27 -27 27 -27 27 27 28 c23 24
25 32 17 56 -8 23 -16 27 -52 30 -42 3 -42 3 -42 42 0 39 0 39 42 42 36 3 44
7 52 30 8 24 6 32 -17 56 l-27 28 28 27 28 27 27 -27 c23 -23 30 -26 54 -17
24 8 28 16 31 52 3 42 3 42 42 42 39 0 39 0 42 -42z"/>
<path d="M500 1160 c-11 -11 -20 -29 -20 -40 0 -11 9 -29 20 -40 19 -19 33
-20 320 -20 287 0 301 1 320 20 25 25 25 55 0 80 -19 19 -33 20 -320 20 -287
0 -301 -1 -320 -20z m615 -40 c0 -13 -40 -15 -289 -18 -169 -1 -294 2 -299 7
-28 28 10 31 296 29 252 -3 292 -5 292 -18z"/>
<path d="M130 1145 c-26 -32 13 -81 48 -59 34 22 22 74 -18 74 -10 0 -23 -7
-30 -15z"/>
<path d="M250 1145 c-26 -32 13 -81 48 -59 34 22 22 74 -18 74 -10 0 -23 -7
-30 -15z"/>
<path d="M370 1145 c-26 -32 13 -81 48 -59 34 22 22 74 -18 74 -10 0 -23 -7
-30 -15z"/>
<path d="M875 925 c-16 -9 -45 -26 -64 -40 l-34 -25 -264 0 -264 0 -24 -25
c-33 -32 -33 -78 0 -110 l24 -25 264 0 264 0 34 -25 c76 -55 130 -67 192 -41
36 15 90 72 84 90 -2 6 -34 13 -72 16 -75 6 -100 24 -79 58 8 12 29 18 79 22
38 3 70 10 72 16 6 18 -48 75 -84 90 -42 18 -90 17 -128 -1z m134 -49 c14 -15
11 -16 -32 -16 -43 0 -49 -3 -73 -40 l-27 -40 27 -40 c24 -37 30 -40 73 -40
45 0 46 -1 30 -17 -12 -12 -33 -18 -65 -18 -37 0 -57 8 -95 35 l-49 35 -270 5
c-244 5 -272 7 -282 22 -8 13 -8 23 0 35 10 16 38 19 281 23 l270 5 44 30 c24
17 51 33 59 37 23 12 91 1 109 -16z"/>
<path d="M285 790 c-4 -7 -3 -16 3 -22 14 -14 47 -6 47 12 0 18 -40 26 -50 10z"/>
<path d="M365 789 c-15 -24 17 -29 161 -27 125 3 149 5 149 18 0 13 -25 15
-152 18 -103 2 -154 -1 -158 -9z"/>
<path d="M705 790 c-4 -7 -3 -16 3 -22 14 -14 47 -6 47 12 0 18 -40 26 -50 10z"/>
<path d="M595 451 c-45 -20 -70 -60 -70 -112 0 -42 5 -53 33 -81 47 -48 117
-48 164 0 28 28 33 39 33 82 0 42 -5 54 -31 81 -33 33 -92 46 -129 30z m100
-56 c50 -49 15 -135 -55 -135 -41 0 -80 39 -80 80 0 19 9 40 25 55 15 16 36
25 55 25 19 0 40 -9 55 -25z"/>
</g>
</svg>
