<?xml version="1.0" standalone="no"?>
<!DOCTYPE svg PUBLIC "-//W3C//DTD SVG 20010904//EN"
 "http://www.w3.org/TR/2001/REC-SVG-20010904/DTD/svg10.dtd">
<svg version="1.0" xmlns="http://www.w3.org/2000/svg"
 width="128.000000pt" height="128.000000pt" viewBox="0 0 128.000000 128.000000"
 preserveAspectRatio="xMidYMid meet">

<g transform="translate(0.000000,128.000000) scale(0.100000,-0.100000)"
fill="#161853" stroke="none">
<path d="M115 1169 c-48 -24 -50 -34 -53 -371 -2 -207 1 -331 8 -357 18 -67
35 -71 280 -71 l210 0 0 -54 0 -54 -72 -22 c-157 -47 -178 -54 -178 -64 0 -6
13 -26 28 -44 l27 -33 100 31 c135 40 215 40 350 0 l100 -31 27 33 c15 18 28
38 28 45 0 10 -39 24 -192 68 l-58 16 0 55 0 54 210 0 c245 0 262 4 280 71 7
26 10 150 8 357 -3 340 -4 348 -55 371 -32 14 -1019 14 -1048 0z m1055 -39
c19 -19 20 -33 20 -353 0 -285 -2 -336 -16 -355 l-15 -22 -519 0 -519 0 -15
22 c-14 19 -16 70 -16 355 0 320 1 334 20 353 19 19 33 20 530 20 497 0 511
-1 530 -20z m-471 -850 l-2 -90 -57 0 -57 0 -2 90 -1 90 60 0 60 0 -1 -90z
m-139 -69 c0 -25 -3 -27 -101 -56 -63 -19 -85 -22 -96 -13 -25 20 -8 32 83 59
110 33 114 34 114 10z m265 -7 c103 -30 115 -38 95 -59 -13 -12 -25 -11 -98
10 -98 29 -102 31 -102 56 0 24 -3 24 105 -7z"/>
<path d="M143 1113 c-10 -4 -13 -81 -13 -338 0 -294 2 -334 16 -339 20 -8 968
-8 988 0 14 5 16 45 16 339 0 294 -2 334 -16 339 -19 7 -973 7 -991 -1z m987
-338 l0 -315 -490 0 -490 0 0 315 0 315 490 0 490 0 0 -315z"/>
<path d="M630 788 c-24 -90 -45 -169 -48 -175 -2 -7 2 -13 10 -13 11 0 27 45
57 158 23 86 44 165 47 175 3 10 0 17 -9 17 -9 0 -27 -50 -57 -162z"/>
<path d="M218 884 c-5 -4 -8 -43 -8 -86 0 -75 2 -81 29 -109 33 -32 58 -36
101 -14 20 10 32 27 39 53 12 41 14 121 5 146 -13 33 -24 2 -24 -67 0 -86 -16
-117 -60 -117 -52 0 -67 31 -73 148 -1 30 -5 50 -9 46z"/>
<path d="M420 876 c0 -9 12 -35 27 -57 l27 -41 -27 -48 c-15 -26 -27 -53 -27
-59 0 -22 16 -10 40 29 14 22 27 40 31 40 3 0 15 -18 28 -40 22 -39 41 -52 41
-28 0 6 -12 32 -26 56 l-27 46 27 47 c14 26 26 52 26 58 0 22 -17 10 -39 -29
-12 -22 -26 -40 -31 -40 -5 0 -16 13 -24 28 -8 16 -22 34 -30 41 -13 11 -16
11 -16 -3z"/>
<path d="M734 876 c-3 -9 -4 -50 -2 -91 4 -92 25 -120 89 -120 33 0 46 6 65
29 23 25 25 35 22 110 -4 103 -22 103 -26 -1 -3 -87 -18 -113 -62 -113 -46 0
-60 27 -60 113 0 72 -13 107 -26 73z"/>
<path d="M950 875 c0 -9 9 -15 25 -15 25 0 25 -1 25 -85 0 -84 0 -85 -25 -85
-16 0 -25 -6 -25 -15 0 -12 13 -15 61 -15 44 0 60 3 57 13 -3 6 -14 13 -26 15
-21 3 -22 9 -22 88 0 84 0 84 26 84 16 0 24 5 22 13 -3 7 -27 13 -61 15 -46 2
-57 0 -57 -13z"/>
</g>
</svg>
